<svg id="GraphicMama" xmlns="http://www.w3.org/2000/svg" viewBox="0 0 614.89 256.2">
  <defs>
    <style>
      .cls-1 {
        fill: #816042;
      }

      .cls-2 {
        fill: #6e5137;
      }

      .cls-3 {
        fill: #543928;
      }

      .cls-4 {
        fill: #e6e5e5;
      }

      .cls-5 {
        fill: #f1bc19;
      }

      .cls-6 {
        fill: #6d6f70;
      }

      .cls-7 {
        fill: #fff;
      }

      .cls-8 {
        fill: #221f1f;
      }

      .cls-9 {
        fill: #ffcb37;
      }

      .cls-10 {
        fill: #7c5032;
      }
    </style>
  </defs>
  <title>6200-eagle-1454360_4</title>
  <g id="eagle_11" data-name="eagle 11">
    <g>
      <path class="cls-1" d="M581.58,66.63s22.4,0,33.31-5.69c0,0-68-23-99.64-29.19S417,8.73,398.33,15.12c0,0-14.13,67.69-56.76,85.92l1.6,5s.23,30.54,15,46.49c0,0,3.42-2.5,6.16-15.27,0,0,5.92,9.8,13.44,13.22a40.43,40.43,0,0,0,1.6-19.14s4.95,9.9,18.66,16.06c.23-.77.48-1.54.75-2.29a42.4,42.4,0,0,0-2.09-18.56s5.47,10.71,16.87,14.82c0,0,2.51,3.64,5.92,4.55a19.27,19.27,0,0,0,9.35,9.35,15.82,15.82,0,0,0,3,5.47s-1.14,11.39,2.05,22.11c0,0,15.73-12.31,21.88-36.7,0,0-1.13,13,4.79,32.14,0,0,20.74-27.58,19.83-61.08,0,0,5.7,23.93,15.27,39.88,0,0,11.63-33.27,5.47-62.45,0,0,8.43,23.48,28.49,40.8,0,0-.45-27.81-6.84-49,0,0,15.28,26,44.91,36.92a149.62,149.62,0,0,0-16-37.15S563.34,98.31,587.5,97.4c0,0-9.8-14.36-23-24.16,0,0,17.33,8.89,35.79,9.8C600.27,83,590.7,72.78,581.58,66.63Z"/>
      <path class="cls-2" d="M343.32,104.7s.91,13.52,10.48,22.49c0,0,3.5-7.3,3-13.53,0,0,2.59,8.82,6.39,10.94,0,0,2.58-7.14,1.52-13.83,0,0,3.49,7.91,8.35,9.12a36,36,0,0,0-.76-16.56s5.78,8.81,11.86,11.4c0,0,1.52-8.67.15-13.38,0,0,6.08,5.32,11.7,6.08,0,0,.61-10.48-3-17.78,0,0,6.23,8.51,17.17,8.82a38.55,38.55,0,0,0-6.38-17.63,30.75,30.75,0,0,0,19.9,5.77S421.43,77.8,412,67.77c0,0,10.64,10.49,16.26,10.79,0,0-1.67-14.13-6.83-20.06,0,0,8.5,9.58,13.06,11.09,0,0-.45-10.33-4.71-17.32,0,0,5,9.73,9.88,12.31,0,0,2.43-13.52.61-23.25,0,0,4.56,16.72,13.07,25.83,0,0,4.71-14.28,4.25-25.37,0,0,1.06,15.65,10.79,28.41,0,0,5.47-9.42,4.56-25.07a49.64,49.64,0,0,0,7.6,23.7s6.38-8.5,8.51-24.16c0,0,.15,9.58,15.95,20.67,0,0,3.34-9-2-25.38a37.23,37.23,0,0,0,23.55,18.69s-.46-5.31-5.32-13.52c0,0,8.51,11.24,21.12,11.4,0,0,.46-2.28-4.4-8.82,0,0,9.57,9,21.73,7a12.17,12.17,0,0,0-2.13-4.86s13.22,2.13,21.73.76c0,0-121.27-35.94-159.33-36.85s-32.14,9.57-32.14,9.57S390.19,72.11,343.32,104.7Z"/>
      <path class="cls-3" d="M338.84,85.77s60.17-4.1,31.45-72c0,0,7.86,1.48,10.31,3.11,0,0,.81-9.52,2.17-13.87,0,0,4.9,4.08,6,6.53,0,0,3.81-7.89,6-9.52,0,0,3.8,3,4.89,5.71,0,0,107.66,8.27,215.26,55.23,0,0-157.75-45.59-213.83-42.4,0,0,5,60.18-58.35,89.36C342.71,107.9,328.14,104.67,338.84,85.77Z"/>
    </g>
    <g>
      <path class="cls-1" d="M216.56,15.12C197.87,8.73,131.32,25.6,99.63,31.75S0,60.94,0,60.94c10.91,5.72,33.31,5.69,33.31,5.69C24.19,72.78,14.62,83,14.62,83c18.46-.91,35.78-9.8,35.78-9.8-13.22,9.8-23,24.16-23,24.16,24.16.91,35.79-11.17,35.79-11.17a149.16,149.16,0,0,0-16,37.15c29.63-10.94,44.9-36.92,44.9-36.92-6.38,21.19-6.83,49-6.83,49,20-17.32,28.49-40.8,28.49-40.8-6.16,29.18,5.47,62.45,5.47,62.45,9.57-16,15.27-39.88,15.27-39.88-.92,33.5,19.83,61.08,19.83,61.08,5.92-19.15,4.78-32.14,4.78-32.14,6.16,24.39,21.88,36.7,21.88,36.7,3.19-10.72,2.05-22.11,2.05-22.11a15.74,15.74,0,0,0,3-5.47,19.28,19.28,0,0,0,9.34-9.35c3.42-.91,5.93-4.55,5.93-4.55,11.39-4.11,16.86-14.82,16.86-14.82-3.2,9.8-2.35,17.11-2,19.34.16.53.34,1,.53,1.56,13.78-6.16,18.76-16.11,18.76-16.11a40.51,40.51,0,0,0,1.59,19.14c7.52-3.42,13.45-13.22,13.45-13.22,2.73,12.77,6.15,15.27,6.15,15.27,14.82-16,15.05-46.49,15.05-46.49l1.59-5C230.69,82.81,216.56,15.12,216.56,15.12Z"/>
      <path class="cls-2" d="M271.57,104.7s-.91,13.52-10.49,22.49c0,0-3.49-7.3-3-13.53,0,0-2.58,8.82-6.38,10.94,0,0-2.58-7.14-1.52-13.83,0,0-3.49,7.91-8.36,9.12a36.17,36.17,0,0,1,.76-16.56s-5.77,8.81-11.85,11.4c0,0-1.52-8.67-.15-13.38,0,0-6.08,5.32-11.7,6.08,0,0-.61-10.48,3-17.78,0,0-6.23,8.51-17.17,8.82a38.41,38.41,0,0,1,6.38-17.63,30.76,30.76,0,0,1-19.91,5.77s2.28-8.81,11.7-18.84c0,0-10.63,10.49-16.26,10.79,0,0,1.68-14.13,6.84-20.06,0,0-8.51,9.58-13.07,11.09,0,0,.46-10.33,4.71-17.32,0,0-5,9.73-9.87,12.31,0,0-2.43-13.52-.61-23.25,0,0-4.56,16.72-13.07,25.83,0,0-4.71-14.28-4.25-25.37,0,0-1.07,15.65-10.79,28.41,0,0-5.47-9.42-4.56-25.07a49.64,49.64,0,0,1-7.6,23.7s-6.38-8.5-8.51-24.16c0,0-.15,9.58-16,20.67,0,0-3.35-9,2-25.38A37.23,37.23,0,0,1,88.31,58.65s.45-5.31,5.32-13.52c0,0-8.51,11.24-21.13,11.4,0,0-.45-2.28,4.41-8.82,0,0-9.57,9-21.73,7a12.17,12.17,0,0,1,2.13-4.86S44.09,52,35.58,50.6c0,0,121.26-35.94,159.33-36.85S227,23.32,227,23.32,224.69,72.11,271.57,104.7Z"/>
      <path class="cls-3" d="M276.05,85.77s-60.17-4.1-31.46-72c0,0-7.85,1.48-10.3,3.11,0,0-.81-9.52-2.17-13.87,0,0-4.9,4.08-6,6.53,0,0-3.8-7.89-6-9.52,0,0-3.81,3-4.89,5.71C215.26,5.71,107.6,14,0,60.94c0,0,157.75-45.59,213.82-42.4,0,0-5,60.18,58.36,89.36C272.18,107.9,286.75,104.67,276.05,85.77Z"/>
    </g>
    <g>
      <path class="cls-4" d="M351.32,233.71c-6.39-27.66-21-40.12-21-40.12-2.74-25.22-21.58-14.28-21.58-14.28a.78.78,0,0,1-1.16,0S288.77,168.37,286,193.59c0,0-14.59,12.46-21,40.12,0,0,17.32-12.77,28-28.87,0,0-10.94,24-10.94,45.89,0,0,13-17.13,19.29-35.64-.55,24.51,7,40.85,7.15,41.11,0,0,7-16.6,6.48-41.11,6.33,18.51,19.3,35.64,19.3,35.64,0-21.88-10.94-45.89-10.94-45.89C334,220.94,351.32,233.71,351.32,233.71Z"/>
      <g>
        <path class="cls-5" d="M259.14,206.05l-9.58,9.42s-9.42-20.82-17.93-8.81c0,0-4.41-4.26-6.38,2.58,0,0-4.26.76-1.22,5.32,0,0,3.5,1.52,4.11-.76a3.54,3.54,0,0,0,4.4-2s.31,1.52,3.35,2.73c0,0,10,4.56,6.38,14.29,0,0-3-5.48-7.14.91,0,0,5,12.61,13.52,4a14.35,14.35,0,0,0,2-12l13.82-15.95S260.81,203.77,259.14,206.05Z"/>
        <path class="cls-3" d="M275.18,157.35s-9.73,8-15.2,16.63h0s-2.51,14.81-.23,28.94h0l-2.7,2.72a13.5,13.5,0,0,0,9.08,1.62h0s23.48-1.83,25.07-23.94Z"/>
        <path class="cls-6" d="M226.13,212.06s-1.49-1.37-2.72,1.44c0,0,1.45,5.5,4.66,7.78C227.53,220.63,225.15,214.51,226.13,212.06Zm1.65-.44c-.73,3.23,2.74,8.72,2.74,8.72s-1.93-6.59,0-10C230.52,210.31,228.51,208.39,227.78,211.62Zm10.19-2s-1.31-3.48-4.51,0c0,0-1.76,3.41,1.33,9.94C234.79,219.64,234.53,211.4,238,209.67Z"/>
        <path class="cls-6" d="M238.55,230.9l-1.83,1.74a8.83,8.83,0,0,1-2-9.27S233.61,227.93,238.55,230.9Z"/>
      </g>
      <g>
        <path class="cls-5" d="M358.71,206.05l9.58,9.42s9.42-20.82,17.93-8.81c0,0,4.4-4.26,6.38,2.58,0,0,4.25.76,1.21,5.32,0,0-3.49,1.52-4.1-.76a3.54,3.54,0,0,1-4.4-2s-.31,1.52-3.35,2.73c0,0-10,4.56-6.38,14.29,0,0,3-5.48,7.14.91,0,0-5,12.61-13.52,4a14.35,14.35,0,0,1-2-12l-13.83-15.95S357,203.77,358.71,206.05Z"/>
        <path class="cls-3" d="M342.67,157.35s9.73,8,15.2,16.63h0s2.51,14.81.23,28.94h0l2.7,2.72a13.5,13.5,0,0,1-9.08,1.62h0s-23.48-1.83-25.08-23.94Z"/>
        <path class="cls-6" d="M389.77,221.28c3.22-2.28,4.67-7.78,4.67-7.78-1.23-2.81-2.72-1.44-2.72-1.44C392.7,214.51,390.32,220.63,389.77,221.28Zm-2.44-11c1.93,3.44,0,10,0,10s3.47-5.49,2.74-8.72S387.33,210.31,387.33,210.31Zm-4.27,9.33c3.09-6.53,1.33-9.94,1.33-9.94-3.2-3.51-4.51,0-4.51,0C383.32,211.4,383.06,219.64,383.06,219.64Z"/>
        <path class="cls-6" d="M379.3,230.9l1.83,1.74a8.85,8.85,0,0,0,2-9.27S384.24,227.93,379.3,230.9Z"/>
      </g>
      <path class="cls-3" d="M274.79,85.25S248.31,135,292.18,187.6a22.37,22.37,0,0,0,27,5.87,19.23,19.23,0,0,0,5.51-4s25.53-25.3,22.79-69.52c0,0-4.49-29.47-10.11-41.4S302.36,50.53,274.79,85.25Z"/>
      <g>
        <path class="cls-4" d="M337.39,78.56l-13.67-9.73-1.37,7.6-32.06,7.9,2.12-10s-9.42,8.5-17.62,10.94c0,0,19.45-21,13.67-45.89,0,0-2.92-3.75-2.95-7.27a.61.61,0,0,1,0-.14,4.9,4.9,0,0,1,2.79-4.45,18.07,18.07,0,0,0,1.06-4.56,65.37,65.37,0,0,1,24-8.81s9.27,5.62,12,10C325.39,24.16,335,52.88,337.39,78.56Z"/>
        <g>
          <path class="cls-7" d="M295.39,36s-5.7-2-8.05-3.27C287.64,34.68,289.64,40.8,295.39,36Z"/>
          <path class="cls-8" d="M290.58,35.88a2,2,0,0,0,2.88.21,3.75,3.75,0,0,0,.61-.51l0-.08c-1.08-.4-2.65-1-4.1-1.6A3.87,3.87,0,0,0,290.58,35.88Z"/>
        </g>
        <g>
          <path class="cls-7" d="M305.43,35.81s9.79-3.27,11-3.9C316.4,31.91,313.59,41.34,305.43,35.81Z"/>
          <path class="cls-8" d="M312.39,36a2.61,2.61,0,0,0,1.67-2.27,4.2,4.2,0,0,0,.06-.87c-1.23.45-2.78,1-4.22,1.48A2,2,0,0,0,312.39,36Z"/>
        </g>
        <path class="cls-6" d="M302.6,32.35s-.1,3.39,2.83,3.46l11.37-3.89a2.69,2.69,0,0,0,1-3.44s.78,2.06-3,3.35S304.41,36.48,302.6,32.35Z"/>
        <path class="cls-6" d="M295.4,36l-9.89-3.93a.61.61,0,0,1,0-.14c.49-.21-.75-.57,4.08.92,5.34,1.63,6.89.6,6.89.6A2.16,2.16,0,0,1,295.4,36Z"/>
        <g>
          <path class="cls-9" d="M306.29,45.73c-.06.23-.13.46-.19.68a31.71,31.71,0,0,1-1.82,4.86c-3.87,2.89-16.8-.39-16.8-.39-2.7,1.16-4.82,6.37-4.82,6.37a20.41,20.41,0,0,1-1.55-13.12C285,40.46,295.4,36,295.4,36c3.28,1.35,7.52-.77,7.52-.77C307.57,36.57,307.33,41.64,306.29,45.73Z"/>
          <path class="cls-10" d="M306.29,45.73c-.06.23-.13.46-.19.68-1,.19-2.09.34-3.12.54-1.75.34-3.5.7-5.23,1.11s-3.56.87-5.33,1.37a42.27,42.27,0,0,1-5.3,1.42s-.07-.05,0-.07a26.31,26.31,0,0,1,5.19-1.86c1.76-.51,3.53-1,5.31-1.42s3.67-.85,5.52-1.2C304.16,46.11,305.22,45.88,306.29,45.73Z"/>
          <path class="cls-10" d="M297,40.84A6.81,6.81,0,0,0,292.83,43c-.06.07,0,.17.09.12a20.9,20.9,0,0,1,3.47-1.68,9.81,9.81,0,0,1-1,.78s0,.12.05.1a5.87,5.87,0,0,0,1.82-1.14C297.41,41,297.23,40.8,297,40.84Z"/>
        </g>
      </g>
    </g>
  </g>
</svg>
